<svg width="359" height="359" viewBox="0 0 359 359" fill="none" xmlns="http://www.w3.org/2000/svg">
<mask id="path-1-inside-1_1156_4" fill="white">
<path d="M294.538 236.497C282.525 260.733 263.168 280.558 239.225 293.145C215.282 305.732 187.977 310.438 161.202 306.594C134.427 302.749 109.549 290.549 90.1153 271.734C70.6817 252.918 57.6844 228.448 52.9766 201.811C48.2687 175.174 52.0907 147.731 63.8974 123.394C75.7042 99.0569 94.893 79.0687 118.728 66.2791C142.563 53.4895 169.828 48.5514 196.635 52.1689C223.441 55.7863 248.422 67.7747 268.014 86.4246L179.458 179.456L294.538 236.497Z"/>
</mask>
<path d="M294.538 236.497C282.525 260.733 263.168 280.558 239.225 293.145C215.282 305.732 187.977 310.438 161.202 306.594C134.427 302.749 109.549 290.549 90.1153 271.734C70.6817 252.918 57.6844 228.448 52.9766 201.811C48.2687 175.174 52.0907 147.731 63.8974 123.394C75.7042 99.0569 94.893 79.0687 118.728 66.2791C142.563 53.4895 169.828 48.5514 196.635 52.1689C223.441 55.7863 248.422 67.7747 268.014 86.4246L179.458 179.456L294.538 236.497Z" fill="black" stroke="#FFF200" stroke-width="6" mask="url(#path-1-inside-1_1156_4)"/>
<path d="M163.031 145.632C162.283 146.59 161.308 147.006 160.107 146.881C158.945 146.704 158.133 146.029 157.669 144.855L148.945 123.427C148.749 122.949 148.396 122.674 147.886 122.6L126.034 119.544C124.782 119.379 123.93 118.754 123.478 117.67C123.065 116.535 123.232 115.488 123.981 114.53L127.526 109.99C128.51 108.729 129.814 107.839 131.437 107.32C133.01 106.762 134.593 106.658 136.187 107.009L148.651 109.921C148.701 109.96 148.746 109.955 148.786 109.904C148.825 109.854 148.819 109.809 148.769 109.77L142.922 98.3835C142.156 96.9731 141.853 95.4373 142.013 93.7761C142.123 92.0755 142.69 90.5695 143.714 89.2579L147.023 85.0207C147.732 84.1127 148.667 83.7468 149.829 83.9231C151.03 84.0489 151.882 84.6735 152.385 85.7971L160.648 106.256C160.804 106.784 161.157 107.06 161.707 107.083L184.611 110.352C185.823 110.567 186.636 111.243 187.049 112.377C187.501 113.461 187.373 114.458 186.664 115.366L183.119 119.905C182.095 121.217 180.777 122.177 179.165 122.786C177.592 123.344 176.029 123.423 174.475 123.021L161.093 119.88C161.043 119.841 160.998 119.846 160.958 119.897C160.919 119.947 160.924 119.992 160.975 120.032L167.266 132.252C167.993 133.713 168.257 135.299 168.057 137.011C167.897 138.672 167.324 140.133 166.34 141.394L163.031 145.632Z" fill="#FFF200"/>
<line x1="240.829" y1="211.391" x2="248.047" y2="198.76" stroke="#FFF200" stroke-width="5"/>
<path d="M230.508 143.277L220.568 135.499" stroke="#FFF200" stroke-width="5"/>
<line x1="218.287" y1="158.037" x2="206.13" y2="150.048" stroke="#FFF200" stroke-width="5"/>
<path d="M236.566 118.674L251.001 129.5" stroke="#FFF200" stroke-width="5"/>
<line x1="262.829" y1="222.391" x2="270.047" y2="209.76" stroke="#FFF200" stroke-width="5"/>
</svg>
